<svg width="35" height="41" viewBox="0 0 35 41" fill="none" xmlns="http://www.w3.org/2000/svg">
<path d="M9.09243 40.2326C8.28408 39.6948 7.56765 39.0303 6.97069 38.2646C6.31403 37.4743 5.70561 36.6451 5.14875 35.7815C3.84198 33.8671 2.81717 31.7748 2.10578 29.5687C1.25119 27.0062 0.837341 24.5501 0.837341 22.1477C0.837341 19.4648 1.41775 17.1227 2.55294 15.1547C3.39443 13.6165 4.63165 12.331 6.13659 11.4314C7.59505 10.5255 9.27084 10.0297 10.9874 9.99637C11.5883 9.99637 12.2353 10.0835 12.9221 10.2501C13.4154 10.3897 14.0163 10.6101 14.7504 10.8843C15.6845 11.2443 16.1982 11.4647 16.3725 11.5185C16.9196 11.7184 17.3796 11.8055 17.7409 11.8055C18.0151 11.8055 18.402 11.7184 18.8415 11.5851C19.0887 11.498 19.5551 11.3442 20.2227 11.0585C20.8838 10.8177 21.404 10.6114 21.8178 10.4576C22.452 10.2706 23.0657 10.0976 23.6128 10.0105C24.2614 9.90822 24.9196 9.88113 25.5744 9.92975C26.7091 10.0039 27.8268 10.2444 28.8916 10.6434C30.6328 11.3442 32.0409 12.4384 33.089 13.9939C32.646 14.2669 32.2302 14.5818 31.8474 14.9343C31.0141 15.6731 30.3043 16.5403 29.7449 17.5032C29.0137 18.8191 28.6346 20.3015 28.6443 21.8069C28.6712 23.6558 29.1453 25.2842 30.0793 26.6923C30.766 27.7359 31.6584 28.6284 32.702 29.3151C33.2363 29.6751 33.6963 29.9224 34.137 30.0889C33.9307 30.7296 33.7104 31.3497 33.4503 31.9647C32.8604 33.3438 32.1455 34.666 31.3144 35.9148C30.5739 36.9897 29.9935 37.7905 29.5527 38.3235C28.866 39.1371 28.2048 39.7585 27.5373 40.1916C26.8032 40.6785 25.9357 40.9386 25.0542 40.9386C24.4573 40.9615 23.8604 40.8893 23.2861 40.7246C22.7928 40.558 22.3047 40.3774 21.8242 40.1711C21.3247 39.9417 20.8097 39.7477 20.2829 39.5907C18.9807 39.2562 17.6155 39.254 16.3123 39.5843C15.778 39.738 15.2642 39.9174 14.7568 40.1378C14.0432 40.4376 13.5691 40.6387 13.2949 40.7246C12.7478 40.8847 12.1802 40.9847 11.6062 41.018C10.7183 41.018 9.89065 40.7643 9.07065 40.2505L9.09243 40.2326ZM20.8031 8.69462C19.6422 9.27503 18.534 9.52231 17.4334 9.44159C17.2604 8.33331 17.4334 7.1994 17.8933 5.95787C18.2849 4.90605 18.8636 3.93373 19.6012 3.08787C20.3803 2.19743 21.3256 1.46757 22.3841 0.939217C23.5116 0.35881 24.5866 0.0449043 25.6142 -0.0012207C25.7474 1.15959 25.6142 2.30119 25.1875 3.53503C24.7927 4.62574 24.2151 5.64131 23.4796 6.53828C22.7289 7.42994 21.8075 8.16263 20.7697 8.69334L20.8031 8.69462Z" fill="white"/>
</svg>
