<svg width="36" height="38" viewBox="0 0 36 38" fill="none" xmlns="http://www.w3.org/2000/svg">
<path d="M26.5518 24.8078C31.1165 22.336 34.5769 20.4525 34.8751 20.306C35.8293 19.8057 36.8146 18.4812 34.8751 17.4524C34.2489 17.1289 30.8775 15.304 26.5518 12.9507L20.5553 18.9232L26.5518 24.8077V24.8078Z" fill="#FFD900"/>
<path d="M20.5553 18.9231L1.46167 37.9013C1.90984 37.9598 2.41581 37.8427 3.01234 37.5192C4.26475 36.8431 17.5414 29.6926 26.5518 24.8091L20.5553 18.9231Z" fill="#F43249"/>
<path d="M20.5553 18.9231L26.5518 12.98C26.5518 12.98 4.35529 1.03344 3.01232 0.328219C2.50635 0.0326785 1.93935 -0.0551098 1.43198 0.0326785L20.5553 18.9231Z" fill="#00EE76"/>
<path d="M20.5553 18.9234L1.43198 0.032959C0.655875 0.209922 0 0.886156 0 2.26913V35.6654C0 36.9312 0.507516 37.843 1.46166 37.9309L20.5553 18.9234Z" fill="#00D3FF"/>
</svg>
