<svg width="37" height="38" viewBox="0 0 37 38" fill="none" xmlns="http://www.w3.org/2000/svg">
<circle cx="18.8125" cy="18.9395" r="18.1875" fill="white"/>
<path d="M28.672 22.6649V19.6836H31.6546V17.4485H28.672V14.4672H26.437V17.4485H23.4556V19.6836H26.437V22.6649H28.672ZM14.519 14.3859C15.9142 14.3859 16.8538 14.9819 17.3883 15.4893L19.5088 13.4327C18.2183 12.2259 16.5349 11.4871 14.519 11.4871C10.4084 11.4858 7.06628 14.8255 7.06628 18.9398C7.06628 23.0541 10.4084 26.3937 14.519 26.3937C18.8205 26.3937 21.6762 23.3681 21.6762 19.1122C21.6762 18.4928 21.5974 18.0531 21.4878 17.5852H14.5153V20.3633H18.6185C18.4239 21.5344 17.3735 23.5109 14.519 23.5109C12.0524 23.5109 10.0402 21.4606 10.0402 18.9496C10.0402 16.435 12.0524 14.3859 14.519 14.3859Z" fill="black"/>
</svg>
