<svg width="38" height="38" viewBox="0 0 38 38" fill="none" xmlns="http://www.w3.org/2000/svg">
<circle cx="19.0626" cy="18.9395" r="18.1875" fill="white"/>
<path d="M26.1987 9.8457H12.4949C11.4181 9.8457 10.5372 10.7267 10.5372 11.8034V25.5072C10.5372 26.5849 11.4181 27.4649 12.4949 27.4649H26.1987C27.2754 27.4649 28.1564 26.5849 28.1564 25.5072V11.8034C28.1564 10.7267 27.2754 9.8457 26.1987 9.8457ZM19.3311 24.0614C20.7689 24.0612 22.1477 23.4898 23.1643 22.4731C24.1808 21.4563 24.7519 20.0774 24.7519 18.6396C24.7519 18.3088 24.7098 17.9897 24.6511 17.6765H26.1987V24.7398C26.1987 24.8287 26.1811 24.9168 26.147 24.9989C26.1128 25.0811 26.0628 25.1557 25.9998 25.2184C25.9368 25.2812 25.862 25.3308 25.7797 25.3646C25.6974 25.3984 25.6093 25.4156 25.5203 25.4152H13.1732C13.0843 25.4156 12.9961 25.3984 12.9138 25.3646C12.8315 25.3308 12.7567 25.2812 12.6937 25.2184C12.6307 25.1557 12.5807 25.0811 12.5465 24.9989C12.5124 24.9168 12.4949 24.8287 12.4949 24.7398V17.6765H14.0111C13.9514 17.9897 13.9093 18.3088 13.9093 18.6396C13.9095 20.0775 14.4809 21.4564 15.4976 22.4731C16.5143 23.4899 17.8932 24.0612 19.3311 24.0614ZM15.9433 18.6396C15.9433 18.1947 16.0309 17.7542 16.2012 17.3432C16.3715 16.9322 16.621 16.5587 16.9356 16.2441C17.2502 15.9295 17.6236 15.68 18.0347 15.5097C18.4457 15.3395 18.8862 15.2519 19.3311 15.2519C19.776 15.2519 20.2165 15.3395 20.6275 15.5097C21.0386 15.68 21.412 15.9295 21.7266 16.2441C22.0412 16.5587 22.2907 16.9322 22.461 17.3432C22.6312 17.7542 22.7189 18.1947 22.7189 18.6396C22.7189 19.5381 22.362 20.3998 21.7266 21.0352C21.0913 21.6705 20.2296 22.0274 19.3311 22.0274C18.4326 22.0274 17.5709 21.6705 16.9356 21.0352C16.3002 20.3998 15.9433 19.5381 15.9433 18.6396ZM25.5203 14.7399H23.9395C23.76 14.7394 23.588 14.6679 23.4611 14.541C23.3342 14.414 23.2627 14.242 23.2621 14.0626V12.4798C23.2621 12.1059 23.5656 11.8034 23.9385 11.8034H25.5193C25.8952 11.8034 26.1987 12.1059 26.1987 12.4798V14.0616C26.1987 14.4345 25.8952 14.7399 25.5203 14.7399Z" fill="black"/>
</svg>
