<svg width="169" height="74" viewBox="0 0 169 74" fill="none" xmlns="http://www.w3.org/2000/svg">
<circle cx="85" cy="37" r="37" fill="#02CE77" fill-opacity="0.74"/>
<path d="M36.392 13.712C36.392 14.448 36.248 15.136 35.96 15.776C35.704 16.384 35.336 16.928 34.856 17.408C34.376 17.888 33.816 18.272 33.176 18.56C32.536 18.816 31.864 18.944 31.16 18.944H23.864V38.768C23.864 39.504 23.72 40.192 23.432 40.832C23.176 41.44 22.808 41.984 22.328 42.464C21.848 42.944 21.288 43.328 20.648 43.616C20.008 43.872 19.336 44 18.632 44C17.224 44 16.008 43.488 14.984 42.464C13.96 41.44 13.448 40.208 13.448 38.768V18.944H6.104C4.696 18.944 3.48 18.432 2.456 17.408C1.432 16.384 0.92 15.152 0.92 13.712C0.92 13.008 1.048 12.336 1.304 11.696C1.592 11.056 1.96 10.496 2.408 10.016C2.888 9.536 3.432 9.168 4.04 8.912C4.68 8.624 5.368 8.48 6.104 8.48H31.16C31.864 8.48 32.536 8.624 33.176 8.912C33.816 9.168 34.376 9.536 34.856 10.016C35.336 10.496 35.704 11.056 35.96 11.696C36.248 12.336 36.392 13.008 36.392 13.712ZM80.2801 26.24C80.2801 31.136 78.5361 35.328 75.0481 38.816C71.5921 42.272 67.4161 44 62.5201 44C57.6241 44 53.4481 42.272 49.9921 38.816C46.5361 35.36 44.8081 31.168 44.8081 26.24V13.712C44.8081 13.008 44.9361 12.336 45.1921 11.696C45.4801 11.056 45.8481 10.496 46.2961 10.016C46.7761 9.536 47.3201 9.168 47.9281 8.912C48.5681 8.624 49.2561 8.48 49.9921 8.48C50.6961 8.48 51.3681 8.624 52.0081 8.912C52.6481 9.168 53.2081 9.536 53.6881 10.016C54.1681 10.496 54.5361 11.056 54.7921 11.696C55.0801 12.336 55.2241 13.008 55.2241 13.712V26.24C55.2241 28.224 55.9281 29.952 57.3361 31.424C58.8081 32.832 60.5361 33.536 62.5201 33.536C64.5041 33.536 66.2321 32.832 67.7041 31.424C69.1441 30.048 69.8641 28.32 69.8641 26.24V13.712C69.8641 13.008 69.9921 12.336 70.2481 11.696C70.5361 11.056 70.9041 10.496 71.3521 10.016C71.8321 9.536 72.3761 9.168 72.9841 8.912C73.6241 8.624 74.3121 8.48 75.0481 8.48C75.7521 8.48 76.4241 8.624 77.0641 8.912C77.7041 9.168 78.2641 9.536 78.7441 10.016C79.2241 10.496 79.5921 11.056 79.8481 11.696C80.1361 12.336 80.2801 13.008 80.2801 13.712V26.24ZM124.168 38.768C124.168 39.504 124.024 40.192 123.736 40.832C123.48 41.44 123.112 41.984 122.632 42.464C122.152 42.944 121.592 43.328 120.952 43.616C120.312 43.872 119.64 44 118.936 44C114.04 44 109.864 42.272 106.408 38.816C102.952 35.36 101.224 31.168 101.224 26.24C101.224 24.256 100.504 22.544 99.0643 21.104C97.6243 19.664 95.8963 18.944 93.8803 18.944C92.4723 18.944 91.2563 18.432 90.2323 17.408C89.2083 16.384 88.6963 15.152 88.6963 13.712C88.6963 13.008 88.8243 12.336 89.0803 11.696C89.3683 11.056 89.7363 10.496 90.1843 10.016C90.6643 9.536 91.2083 9.168 91.8163 8.912C92.4563 8.624 93.1443 8.48 93.8803 8.48C98.7763 8.48 102.952 10.224 106.408 13.712C109.896 17.168 111.64 21.344 111.64 26.24C111.64 28.224 112.344 29.952 113.752 31.424C115.224 32.832 116.952 33.536 118.936 33.536C119.64 33.536 120.312 33.68 120.952 33.968C121.592 34.224 122.152 34.592 122.632 35.072C123.112 35.552 123.48 36.112 123.736 36.752C124.024 37.392 124.168 38.064 124.168 38.768ZM99.1123 38.768C99.1123 39.504 98.9683 40.192 98.6803 40.832C98.4243 41.472 98.0563 42.032 97.5763 42.512C97.1283 42.96 96.5843 43.328 95.9443 43.616C95.3043 43.872 94.6163 44 93.8803 44C92.4723 44 91.2563 43.488 90.2323 42.464C89.2083 41.44 88.6963 40.208 88.6963 38.768V26.24C88.6963 25.536 88.8243 24.864 89.0803 24.224C89.3683 23.584 89.7363 23.024 90.1843 22.544C90.6643 22.064 91.2083 21.696 91.8163 21.44C92.4563 21.152 93.1443 21.008 93.8803 21.008C94.5843 21.008 95.2563 21.152 95.8963 21.44C96.5363 21.696 97.0963 22.064 97.5763 22.544C98.0563 23.024 98.4243 23.584 98.6803 24.224C98.9683 24.864 99.1123 25.536 99.1123 26.24V38.768ZM124.168 26.24C124.168 26.976 124.024 27.664 123.736 28.304C123.48 28.912 123.112 29.456 122.632 29.936C122.152 30.416 121.592 30.8 120.952 31.088C120.312 31.344 119.64 31.472 118.936 31.472C117.528 31.472 116.312 30.96 115.288 29.936C114.264 28.912 113.752 27.68 113.752 26.24V13.712C113.752 13.008 113.88 12.336 114.136 11.696C114.424 11.056 114.792 10.496 115.24 10.016C115.72 9.536 116.264 9.168 116.872 8.912C117.512 8.624 118.2 8.48 118.936 8.48C119.64 8.48 120.312 8.624 120.952 8.912C121.592 9.168 122.152 9.536 122.632 10.016C123.112 10.496 123.48 11.056 123.736 11.696C124.024 12.336 124.168 13.008 124.168 13.712V26.24ZM168.056 38.768C168.056 39.504 167.912 40.192 167.624 40.832C167.368 41.44 167 41.984 166.52 42.464C166.04 42.944 165.48 43.328 164.84 43.616C164.2 43.872 163.528 44 162.824 44H137.768C136.712 44 135.752 43.712 134.888 43.136C134.024 42.56 133.384 41.76 132.968 40.736C132.712 40.16 132.584 39.504 132.584 38.768C132.584 37.328 133.096 36.096 134.12 35.072L150.248 18.944H137.768C136.36 18.944 135.144 18.432 134.12 17.408C133.096 16.384 132.584 15.152 132.584 13.712C132.584 13.008 132.712 12.336 132.968 11.696C133.256 11.056 133.624 10.496 134.072 10.016C134.552 9.536 135.096 9.168 135.704 8.912C136.344 8.624 137.032 8.48 137.768 8.48H162.824C163.912 8.48 164.888 8.768 165.752 9.344C166.616 9.92 167.256 10.72 167.672 11.744C167.928 12.448 168.056 13.104 168.056 13.712C168.056 15.152 167.544 16.384 166.52 17.408L150.392 33.536H162.824C163.528 33.536 164.2 33.68 164.84 33.968C165.48 34.224 166.04 34.592 166.52 35.072C167 35.552 167.368 36.112 167.624 36.752C167.912 37.392 168.056 38.064 168.056 38.768Z" fill="white"/>
<path d="M4.992 69H7.536V61.752H15.504V69H18.048V53.16H15.504V59.472H7.536V53.16H4.992V69ZM21.0253 63.096C20.9533 66.432 23.8573 69.336 27.2413 69.264C30.6733 69.336 33.5773 66.432 33.5053 63.096C33.5773 59.76 30.6733 56.88 27.2413 56.952C23.8573 56.904 20.9533 59.712 21.0253 63.096ZM30.9133 63.12C30.9133 65.256 29.3293 66.936 27.2413 66.936C25.1773 66.936 23.5933 65.304 23.5933 63.12C23.5933 60.936 25.1773 59.256 27.2653 59.256C29.3053 59.256 30.9133 60.936 30.9133 63.12ZM43.4023 66.864C42.7063 66.936 42.2023 66.984 41.8423 66.984C40.3063 66.984 39.5143 66.456 39.5143 64.944V59.4H43.0183V57.216H39.5143V54.12H36.9703V57.216H35.0503V59.4H36.9703V65.16C36.9703 67.92 38.6023 69.264 41.3143 69.264C41.9143 69.264 42.6103 69.168 43.4023 69V66.864ZM56.3304 63.936C56.4504 63.384 56.5224 62.856 56.5224 62.352C56.5224 59.28 54.1944 56.952 51.0744 56.952C47.7384 56.88 44.9064 59.736 44.9784 63.12C44.9784 66.6 47.7144 69.264 51.3144 69.264C53.1144 69.264 54.6744 68.64 56.0184 67.368L54.8184 65.64C53.7624 66.576 52.6104 67.032 51.3864 67.032C49.3704 67.032 47.8584 65.856 47.5464 63.936H56.3304ZM47.5944 61.968C47.9784 60.216 49.3224 59.088 50.9784 59.088C52.6344 59.088 53.9784 60.168 54.0024 61.968H47.5944ZM59.4099 69H61.9299V51H59.4099V69ZM85.4046 61.968L83.3886 60.576C83.0286 61.08 82.7886 61.464 82.6206 61.728C81.8286 62.904 81.3486 63.624 81.1326 63.912L78.2766 60.48C80.1726 59.016 80.9886 57.72 80.9886 56.256C80.9886 54.264 79.4526 52.896 77.2686 52.896C74.9886 52.896 73.4766 54.336 73.4766 56.52C73.4766 57.696 73.9566 58.8 75.0126 60.144C73.7646 61.104 72.8766 61.944 72.3726 62.664C71.8686 63.384 71.6286 64.176 71.6286 65.016C71.6286 67.488 73.7166 69.264 76.6446 69.264C78.3966 69.264 79.7886 68.664 81.1086 67.512L82.3326 69H85.3326L82.6926 65.808C83.1246 65.28 83.7966 64.344 84.7086 62.976L85.4046 61.968ZM75.8286 56.544C75.8286 55.608 76.3566 55.104 77.2446 55.104C78.1086 55.104 78.6366 55.608 78.6366 56.448C78.6366 57.288 78.1806 57.912 76.9566 58.872C76.1646 57.84 75.8286 57.24 75.8286 56.544ZM79.5966 65.688C78.6846 66.552 77.7486 66.984 76.7646 66.984C75.2526 66.984 74.2206 66.048 74.2206 64.776C74.2206 64.296 74.3646 63.864 74.6526 63.48C74.9406 63.096 75.5406 62.544 76.4286 61.848L79.5966 65.688ZM107.645 69L102.893 62.472C104.789 61.728 105.941 60.096 105.941 58.008C105.941 55.152 103.757 53.16 100.565 53.16H94.7811V69H97.3251V62.88H100.229L104.741 69H107.645ZM97.3251 55.416H100.517C102.269 55.416 103.325 56.472 103.325 58.032C103.325 59.568 102.269 60.624 100.517 60.624H97.3251V55.416ZM120.01 63.936C120.13 63.384 120.202 62.856 120.202 62.352C120.202 59.28 117.874 56.952 114.754 56.952C111.418 56.88 108.586 59.736 108.658 63.12C108.658 66.6 111.394 69.264 114.994 69.264C116.794 69.264 118.354 68.64 119.698 67.368L118.498 65.64C117.442 66.576 116.29 67.032 115.066 67.032C113.05 67.032 111.538 65.856 111.226 63.936H120.01ZM111.274 61.968C111.658 60.216 113.002 59.088 114.658 59.088C116.314 59.088 117.658 60.168 117.682 61.968H111.274ZM121.986 66.984C123.042 68.352 124.722 69.264 126.738 69.264C127.986 69.264 129.018 68.952 129.858 68.328C130.698 67.68 131.106 66.792 131.106 65.664C131.106 64.008 130.122 63.048 127.89 62.112L126.762 61.656C125.61 61.176 125.202 60.864 125.202 60.264C125.202 59.52 125.826 59.136 126.81 59.136C127.842 59.136 128.826 59.568 129.57 60.336L130.938 58.776C129.906 57.552 128.562 56.952 126.858 56.952C124.458 56.952 122.706 58.248 122.706 60.36C122.706 62.016 123.69 62.928 125.778 63.792L126.978 64.296C128.13 64.776 128.634 65.064 128.634 65.76C128.634 66.624 127.818 67.08 126.738 67.08C125.49 67.08 124.458 66.48 123.426 65.4L121.986 66.984ZM133.268 63.096C133.196 66.432 136.1 69.336 139.484 69.264C142.916 69.336 145.82 66.432 145.747 63.096C145.82 59.76 142.916 56.88 139.484 56.952C136.1 56.904 133.196 59.712 133.268 63.096ZM143.156 63.12C143.156 65.256 141.572 66.936 139.484 66.936C137.42 66.936 135.836 65.304 135.836 63.12C135.836 60.936 137.42 59.256 139.508 59.256C141.548 59.256 143.156 60.936 143.156 63.12ZM155.381 57.216C155.093 57.144 154.781 57.096 154.421 57.096C153.077 57.096 151.829 57.696 150.989 58.752V57.216H148.637V69H151.157V62.712C151.157 60.624 152.621 59.448 154.613 59.448H155.381V57.216ZM164.645 66.864C163.949 66.936 163.445 66.984 163.085 66.984C161.549 66.984 160.757 66.456 160.757 64.944V59.4H164.261V57.216H160.757V54.12H158.213V57.216H156.293V59.4H158.213V65.16C158.213 67.92 159.845 69.264 162.557 69.264C163.157 69.264 163.853 69.168 164.645 69V66.864Z" fill="white"/>
</svg>
