<svg width="129" height="66" viewBox="0 0 129 66" fill="none" xmlns="http://www.w3.org/2000/svg">
<circle cx="64" cy="33" r="33" fill="#02CE77" fill-opacity="0.74"/>
<path d="M28.044 12.284C28.044 12.836 27.936 13.352 27.72 13.832C27.528 14.288 27.252 14.696 26.892 15.056C26.532 15.416 26.112 15.704 25.632 15.92C25.152 16.112 24.648 16.208 24.12 16.208H18.648V31.076C18.648 31.628 18.54 32.144 18.324 32.624C18.132 33.08 17.856 33.488 17.496 33.848C17.136 34.208 16.716 34.496 16.236 34.712C15.756 34.904 15.252 35 14.724 35C13.668 35 12.756 34.616 11.988 33.848C11.22 33.08 10.836 32.156 10.836 31.076V16.208H5.328C4.272 16.208 3.36 15.824 2.592 15.056C1.824 14.288 1.44 13.364 1.44 12.284C1.44 11.756 1.536 11.252 1.728 10.772C1.944 10.292 2.22 9.872 2.556 9.512C2.916 9.152 3.324 8.876 3.78 8.684C4.26 8.468 4.776 8.36 5.328 8.36H24.12C24.648 8.36 25.152 8.468 25.632 8.684C26.112 8.876 26.532 9.152 26.892 9.512C27.252 9.872 27.528 10.292 27.72 10.772C27.936 11.252 28.044 11.756 28.044 12.284ZM60.9601 21.68C60.9601 25.352 59.6521 28.496 57.0361 31.112C54.4441 33.704 51.3121 35 47.6401 35C43.9681 35 40.8361 33.704 38.2441 31.112C35.6521 28.52 34.3561 25.376 34.3561 21.68V12.284C34.3561 11.756 34.4521 11.252 34.6441 10.772C34.8601 10.292 35.1361 9.872 35.4721 9.512C35.8321 9.152 36.2401 8.876 36.6961 8.684C37.1761 8.468 37.6921 8.36 38.2441 8.36C38.7721 8.36 39.2761 8.468 39.7561 8.684C40.2361 8.876 40.6561 9.152 41.0161 9.512C41.3761 9.872 41.6521 10.292 41.8441 10.772C42.0601 11.252 42.1681 11.756 42.1681 12.284V21.68C42.1681 23.168 42.6961 24.464 43.7521 25.568C44.8561 26.624 46.1521 27.152 47.6401 27.152C49.1281 27.152 50.4241 26.624 51.5281 25.568C52.6081 24.536 53.1481 23.24 53.1481 21.68V12.284C53.1481 11.756 53.2441 11.252 53.4361 10.772C53.6521 10.292 53.9281 9.872 54.2641 9.512C54.6241 9.152 55.0321 8.876 55.4881 8.684C55.9681 8.468 56.4841 8.36 57.0361 8.36C57.5641 8.36 58.0681 8.468 58.5481 8.684C59.0281 8.876 59.4481 9.152 59.8081 9.512C60.1681 9.872 60.4441 10.292 60.6361 10.772C60.8521 11.252 60.9601 11.756 60.9601 12.284V21.68ZM93.8762 31.076C93.8762 31.628 93.7682 32.144 93.5522 32.624C93.3602 33.08 93.0842 33.488 92.7242 33.848C92.3642 34.208 91.9442 34.496 91.4642 34.712C90.9842 34.904 90.4802 35 89.9522 35C86.2802 35 83.1482 33.704 80.5562 31.112C77.9642 28.52 76.6682 25.376 76.6682 21.68C76.6682 20.192 76.1282 18.908 75.0482 17.828C73.9682 16.748 72.6722 16.208 71.1602 16.208C70.1042 16.208 69.1922 15.824 68.4242 15.056C67.6562 14.288 67.2722 13.364 67.2722 12.284C67.2722 11.756 67.3682 11.252 67.5602 10.772C67.7762 10.292 68.0522 9.872 68.3882 9.512C68.7482 9.152 69.1562 8.876 69.6122 8.684C70.0922 8.468 70.6082 8.36 71.1602 8.36C74.8322 8.36 77.9642 9.668 80.5562 12.284C83.1722 14.876 84.4802 18.008 84.4802 21.68C84.4802 23.168 85.0082 24.464 86.0642 25.568C87.1682 26.624 88.4642 27.152 89.9522 27.152C90.4802 27.152 90.9842 27.26 91.4642 27.476C91.9442 27.668 92.3642 27.944 92.7242 28.304C93.0842 28.664 93.3602 29.084 93.5522 29.564C93.7682 30.044 93.8762 30.548 93.8762 31.076ZM75.0842 31.076C75.0842 31.628 74.9762 32.144 74.7602 32.624C74.5682 33.104 74.2922 33.524 73.9322 33.884C73.5962 34.22 73.1882 34.496 72.7082 34.712C72.2282 34.904 71.7122 35 71.1602 35C70.1042 35 69.1922 34.616 68.4242 33.848C67.6562 33.08 67.2722 32.156 67.2722 31.076V21.68C67.2722 21.152 67.3682 20.648 67.5602 20.168C67.7762 19.688 68.0522 19.268 68.3882 18.908C68.7482 18.548 69.1562 18.272 69.6122 18.08C70.0922 17.864 70.6082 17.756 71.1602 17.756C71.6882 17.756 72.1922 17.864 72.6722 18.08C73.1522 18.272 73.5722 18.548 73.9322 18.908C74.2922 19.268 74.5682 19.688 74.7602 20.168C74.9762 20.648 75.0842 21.152 75.0842 21.68V31.076ZM93.8762 21.68C93.8762 22.232 93.7682 22.748 93.5522 23.228C93.3602 23.684 93.0842 24.092 92.7242 24.452C92.3642 24.812 91.9442 25.1 91.4642 25.316C90.9842 25.508 90.4802 25.604 89.9522 25.604C88.8962 25.604 87.9842 25.22 87.2162 24.452C86.4482 23.684 86.0642 22.76 86.0642 21.68V12.284C86.0642 11.756 86.1602 11.252 86.3522 10.772C86.5682 10.292 86.8442 9.872 87.1802 9.512C87.5402 9.152 87.9482 8.876 88.4042 8.684C88.8842 8.468 89.4002 8.36 89.9522 8.36C90.4802 8.36 90.9842 8.468 91.4642 8.684C91.9442 8.876 92.3642 9.152 92.7242 9.512C93.0842 9.872 93.3602 10.292 93.5522 10.772C93.7682 11.252 93.8762 11.756 93.8762 12.284V21.68ZM126.792 31.076C126.792 31.628 126.684 32.144 126.468 32.624C126.276 33.08 126 33.488 125.64 33.848C125.28 34.208 124.86 34.496 124.38 34.712C123.9 34.904 123.396 35 122.868 35H104.076C103.284 35 102.564 34.784 101.916 34.352C101.268 33.92 100.788 33.32 100.476 32.552C100.284 32.12 100.188 31.628 100.188 31.076C100.188 29.996 100.572 29.072 101.34 28.304L113.436 16.208H104.076C103.02 16.208 102.108 15.824 101.34 15.056C100.572 14.288 100.188 13.364 100.188 12.284C100.188 11.756 100.284 11.252 100.476 10.772C100.692 10.292 100.968 9.872 101.304 9.512C101.664 9.152 102.072 8.876 102.528 8.684C103.008 8.468 103.524 8.36 104.076 8.36H122.868C123.684 8.36 124.416 8.576 125.064 9.008C125.712 9.44 126.192 10.04 126.504 10.808C126.696 11.336 126.792 11.828 126.792 12.284C126.792 13.364 126.408 14.288 125.64 15.056L113.544 27.152H122.868C123.396 27.152 123.9 27.26 124.38 27.476C124.86 27.668 125.28 27.944 125.64 28.304C126 28.664 126.276 29.084 126.468 29.564C126.684 30.044 126.792 30.548 126.792 31.076Z" fill="#38A2F7"/>
<path d="M7.494 53H9.402V47.564H15.378V53H17.286V41.12H15.378V45.854H9.402V41.12H7.494V53ZM19.519 48.572C19.465 51.074 21.643 53.252 24.181 53.198C26.755 53.252 28.933 51.074 28.879 48.572C28.933 46.07 26.755 43.91 24.181 43.964C21.643 43.928 19.465 46.034 19.519 48.572ZM26.935 48.59C26.935 50.192 25.747 51.452 24.181 51.452C22.633 51.452 21.445 50.228 21.445 48.59C21.445 46.952 22.633 45.692 24.199 45.692C25.729 45.692 26.935 46.952 26.935 48.59ZM36.3017 51.398C35.7797 51.452 35.4017 51.488 35.1317 51.488C33.9797 51.488 33.3857 51.092 33.3857 49.958V45.8H36.0137V44.162H33.3857V41.84H31.4777V44.162H30.0377V45.8H31.4777V50.12C31.4777 52.19 32.7017 53.198 34.7357 53.198C35.1857 53.198 35.7077 53.126 36.3017 53V51.398ZM45.9978 49.202C46.0878 48.788 46.1418 48.392 46.1418 48.014C46.1418 45.71 44.3958 43.964 42.0558 43.964C39.5538 43.91 37.4298 46.052 37.4838 48.59C37.4838 51.2 39.5358 53.198 42.2358 53.198C43.5858 53.198 44.7558 52.73 45.7638 51.776L44.8638 50.48C44.0718 51.182 43.2078 51.524 42.2898 51.524C40.7778 51.524 39.6438 50.642 39.4098 49.202H45.9978ZM39.4458 47.726C39.7338 46.412 40.7418 45.566 41.9838 45.566C43.2258 45.566 44.2338 46.376 44.2518 47.726H39.4458ZM48.3075 53H50.1975V39.5H48.3075V53ZM67.8034 47.726L66.2914 46.682C66.0214 47.06 65.8414 47.348 65.7154 47.546C65.1214 48.428 64.7614 48.968 64.5994 49.184L62.4574 46.61C63.8794 45.512 64.4914 44.54 64.4914 43.442C64.4914 41.948 63.3394 40.922 61.7014 40.922C59.9914 40.922 58.8574 42.002 58.8574 43.64C58.8574 44.522 59.2174 45.35 60.0094 46.358C59.0734 47.078 58.4074 47.708 58.0294 48.248C57.6514 48.788 57.4714 49.382 57.4714 50.012C57.4714 51.866 59.0374 53.198 61.2334 53.198C62.5474 53.198 63.5914 52.748 64.5814 51.884L65.4994 53H67.7494L65.7694 50.606C66.0934 50.21 66.5974 49.508 67.2814 48.482L67.8034 47.726ZM60.6214 43.658C60.6214 42.956 61.0174 42.578 61.6834 42.578C62.3314 42.578 62.7274 42.956 62.7274 43.586C62.7274 44.216 62.3854 44.684 61.4674 45.404C60.8734 44.63 60.6214 44.18 60.6214 43.658ZM63.4474 50.516C62.7634 51.164 62.0614 51.488 61.3234 51.488C60.1894 51.488 59.4154 50.786 59.4154 49.832C59.4154 49.472 59.5234 49.148 59.7394 48.86C59.9554 48.572 60.4054 48.158 61.0714 47.636L63.4474 50.516ZM84.4838 53L80.9198 48.104C82.3418 47.546 83.2058 46.322 83.2058 44.756C83.2058 42.614 81.5678 41.12 79.1738 41.12H74.8358V53H76.7438V48.41H78.9218L82.3058 53H84.4838ZM76.7438 42.812H79.1378C80.4518 42.812 81.2438 43.604 81.2438 44.774C81.2438 45.926 80.4518 46.718 79.1378 46.718H76.7438V42.812ZM93.7576 49.202C93.8476 48.788 93.9016 48.392 93.9016 48.014C93.9016 45.71 92.1556 43.964 89.8156 43.964C87.3136 43.91 85.1896 46.052 85.2436 48.59C85.2436 51.2 87.2956 53.198 89.9956 53.198C91.3456 53.198 92.5156 52.73 93.5236 51.776L92.6236 50.48C91.8316 51.182 90.9676 51.524 90.0496 51.524C88.5376 51.524 87.4036 50.642 87.1696 49.202H93.7576ZM87.2056 47.726C87.4936 46.412 88.5016 45.566 89.7436 45.566C90.9856 45.566 91.9936 46.376 92.0116 47.726H87.2056ZM95.2392 51.488C96.0312 52.514 97.2912 53.198 98.8032 53.198C99.7392 53.198 100.513 52.964 101.143 52.496C101.773 52.01 102.079 51.344 102.079 50.498C102.079 49.256 101.341 48.536 99.6672 47.834L98.8212 47.492C97.9572 47.132 97.6512 46.898 97.6512 46.448C97.6512 45.89 98.1192 45.602 98.8572 45.602C99.6312 45.602 100.369 45.926 100.927 46.502L101.953 45.332C101.179 44.414 100.171 43.964 98.8932 43.964C97.0932 43.964 95.7792 44.936 95.7792 46.52C95.7792 47.762 96.5172 48.446 98.0832 49.094L98.9832 49.472C99.8472 49.832 100.225 50.048 100.225 50.57C100.225 51.218 99.6132 51.56 98.8032 51.56C97.8672 51.56 97.0932 51.11 96.3192 50.3L95.2392 51.488ZM103.701 48.572C103.647 51.074 105.825 53.252 108.363 53.198C110.937 53.252 113.115 51.074 113.061 48.572C113.115 46.07 110.937 43.91 108.363 43.964C105.825 43.928 103.647 46.034 103.701 48.572ZM111.117 48.59C111.117 50.192 109.929 51.452 108.363 51.452C106.815 51.452 105.627 50.228 105.627 48.59C105.627 46.952 106.815 45.692 108.381 45.692C109.911 45.692 111.117 46.952 111.117 48.59ZM120.285 44.162C120.069 44.108 119.835 44.072 119.565 44.072C118.557 44.072 117.621 44.522 116.991 45.314V44.162H115.227V53H117.117V48.284C117.117 46.718 118.215 45.836 119.709 45.836H120.285V44.162ZM127.233 51.398C126.711 51.452 126.333 51.488 126.063 51.488C124.911 51.488 124.317 51.092 124.317 49.958V45.8H126.945V44.162H124.317V41.84H122.409V44.162H120.969V45.8H122.409V50.12C122.409 52.19 123.633 53.198 125.667 53.198C126.117 53.198 126.639 53.126 127.233 53V51.398Z" fill="#2B2B2B"/>
</svg>
