<svg width="38" height="38" viewBox="0 0 38 38" fill="none" xmlns="http://www.w3.org/2000/svg">
<circle cx="18.9374" cy="18.9395" r="18.1875" fill="white"/>
<g clip-path="url(#clip0)">
<path d="M27.9954 13.3088C27.3146 13.608 26.5937 13.8056 25.8555 13.8953C26.6336 13.4283 27.2161 12.6951 27.4952 11.8316C26.7592 12.2584 25.9582 12.5616 25.124 12.729C24.5631 12.1297 23.82 11.7322 23.0101 11.5983C22.2002 11.4644 21.3687 11.6015 20.6447 11.9884C19.9206 12.3753 19.3445 12.9903 19.0057 13.738C18.6669 14.4858 18.5844 15.3244 18.7709 16.1239C15.6716 15.9789 12.9242 14.4898 11.0866 12.2403C10.7521 12.8091 10.5772 13.4576 10.5802 14.1176C10.5798 14.731 10.7308 15.3351 11.0199 15.8762C11.3091 16.4172 11.7273 16.8785 12.2376 17.2191C11.6463 17.2012 11.0678 17.042 10.5507 16.7547V16.7996C10.5505 17.6607 10.848 18.4954 11.3929 19.1622C11.9378 19.8289 12.6964 20.2868 13.5403 20.4582C13.2206 20.5436 12.8913 20.5873 12.5604 20.5883C12.3211 20.5883 12.0926 20.565 11.8647 20.523C12.1049 21.264 12.5701 21.9116 13.1955 22.3759C13.821 22.8401 14.5757 23.0978 15.3545 23.113C14.035 24.1463 12.4068 24.7069 10.7308 24.705C10.434 24.7061 10.1373 24.6894 9.8425 24.655C11.5522 25.7505 13.5405 26.332 15.571 26.3305C22.4294 26.3305 26.1772 20.6497 26.1772 15.73C26.1772 15.5731 26.1772 15.4134 26.1652 15.2531C26.8984 14.7277 27.5302 14.0738 28.03 13.323L27.9954 13.3088Z" fill="black"/>
</g>
<defs>
<clipPath id="clip0">
<rect width="18.1875" height="18.1875" fill="white" transform="translate(9.84366 9.8457)"/>
</clipPath>
</defs>
</svg>
